<?xml version="1.0" encoding="iso-8859-1"?>
<!-- Generator: Adobe Illustrator 16.0.0, SVG Export Plug-In . SVG Version: 6.00 Build 0)  -->
<!DOCTYPE svg PUBLIC "-//W3C//DTD SVG 1.1//EN" "http://www.w3.org/Graphics/SVG/1.1/DTD/svg11.dtd">
<svg version="1.1" id="Capa_1" xmlns="http://www.w3.org/2000/svg" xmlns:xlink="http://www.w3.org/1999/xlink" x="0px" y="0px"
	 width="50px" height="40px" viewBox="0 0 208.792 208.792" style="enable-background:new 0 0 208.792 208.792;"
	 xml:space="preserve">
<g>
	<g>
		<path d="M187.917,183.708H20.878C9.366,183.708,0,174.342,0,162.829c0-7.642,4.17-14.667,10.884-18.332l73.994-41.73
			c2.529-1.427,5.732-0.534,7.159,1.997c1.425,2.531,0.532,5.734-1.999,7.161l-74.052,41.757c-3.4,1.858-5.474,5.349-5.474,9.145
			c0,5.715,4.651,10.365,10.366,10.365h167.039c5.715,0,10.362-4.65,10.362-10.365c0-3.796-2.074-7.286-5.41-9.11l-73.354-41.36
			c-0.387-0.103-0.76-0.239-1.061-0.407c-4.853-2.679-7.864-7.773-7.864-13.303c0-6.398,4.045-12.142,10.068-14.298
			c0.328-0.118,0.667-0.202,1.013-0.251c9.562-3.754,15.934-13.061,15.934-23.384c0-13.85-11.266-25.115-25.112-25.115
			c-13.847,0-25.113,11.266-25.113,25.115c0,2.904-2.351,5.256-5.256,5.256c-2.905,0-5.256-2.353-5.256-5.256
			c0-19.646,15.983-35.628,35.626-35.628c19.644,0,35.625,15.981,35.625,35.628c0,14.991-9.473,28.466-23.571,33.532
			c-0.288,0.104-0.586,0.183-0.884,0.231c-1.553,0.789-2.56,2.397-2.56,4.17c0,1.48,0.702,2.859,1.869,3.739
			c0.349,0.103,0.671,0.232,0.944,0.383l74.056,41.76c6.652,3.635,10.82,10.66,10.82,18.302
			C208.792,174.342,199.43,183.708,187.917,183.708z"/>
	</g>
</g>
<g>
</g>
<g>
</g>
<g>
</g>
<g>
</g>
<g>
</g>
<g>
</g>
<g>
</g>
<g>
</g>
<g>
</g>
<g>
</g>
<g>
</g>
<g>
</g>
<g>
</g>
<g>
</g>
<g>
</g>
</svg>
